<?xml version="1.0" encoding="UTF-8" standalone="no"?>
<svg
   xmlns:dc="http://purl.org/dc/elements/1.1/"
   xmlns:cc="http://creativecommons.org/ns#"
   xmlns:rdf="http://www.w3.org/1999/02/22-rdf-syntax-ns#"
   xmlns:svg="http://www.w3.org/2000/svg"
   xmlns="http://www.w3.org/2000/svg"
   width="40.206577"
   height="42.347221"
   viewBox="0 0 40.206577 42.347221"
   id="svg5833"
   version="1.1">
  <defs
     id="defs5835" />
  <metadata
     id="metadata5838">
    <rdf:RDF>
      <cc:Work
         rdf:about="">
        <dc:format>image/svg+xml</dc:format>
        <dc:type
           rdf:resource="http://purl.org/dc/dcmitype/StillImage" />
        <dc:title></dc:title>
      </cc:Work>
    </rdf:RDF>
  </metadata>
  <g
     id="layer1"
     transform="matrix(0.51252039,0,0,0.51252039,-1.5030115,-479.68752)">
    <rect
       style="opacity:1;fill:#b93408;fill-opacity:0.90980392;stroke:#000000;stroke-width:0.61066478;stroke-linecap:butt;stroke-linejoin:miter;stroke-miterlimit:4;stroke-dasharray:none;stroke-dashoffset:0;stroke-opacity:1"
       class="abc"
       id="rect5721"
       width="9.6803751"
       height="23.036407"
       x="37.17321"
       y="995.22211" />
    <path
       id="path5725"
       d="m 80.954677,995.78211 c 0.35464,1.6416 -1.270648,4.81609 -4.838263,1.1047 0.788785,3.30109 -3.639143,4.05109 -4.838239,0.6834 -1.193122,3.10339 -2.70619,4.90829 -5.444551,0.6835 -1.612746,3.62269 -2.770779,5.21529 -4.383538,1.1045 -2.590372,4.57889 -3.88473,3.07939 -4.838238,-0.019 -1.612758,3.23949 -3.225504,4.44099 -4.838263,-0.019 -1.467046,2.33669 -2.965668,4.16549 -4.83825,-0.019 -1.851433,4.04589 -3.396986,3.26939 -4.838256,-0.019 -1.612746,3.17879 -3.225492,3.06759 -4.838251,-0.019 -3.113137,4.81909 -3.658585,1.38039 -4.83825,-0.019 -2.140743,3.53139 -3.505922,1.86639 -4.838251,-0.019 -1.192541,1.83519 -4.713601,3.13159 -4.686688,-1.1419 -1.346688,1.8957 -2.686834,3.83829 -4.838225,-0.019 -2.389967,3.92829 -3.817063,1.3725 -4.989826,-0.861 -1.603136,1.1739 -4.4048857,4.11689 -4.9960973,-0.8741 -5.1419064,2.6863 -5.0521981,-0.142 -4.5288521,-0.848 L 41.80673,936.61997 Z"
       style="opacity:1;fill:#008080;fill-opacity:1;stroke:#000000;stroke-width:0.74759382;stroke-linecap:butt;stroke-linejoin:miter;stroke-miterlimit:4;stroke-dasharray:none;stroke-dashoffset:0;stroke-opacity:1" />
  </g>
</svg>
