<?xml version="1.0" encoding="UTF-8" standalone="no"?>
<svg
   xmlns:dc="http://purl.org/dc/elements/1.1/"
   xmlns:cc="http://creativecommons.org/ns#"
   xmlns:rdf="http://www.w3.org/1999/02/22-rdf-syntax-ns#"
   xmlns:svg="http://www.w3.org/2000/svg"
   xmlns="http://www.w3.org/2000/svg"
   version="1.1"
   id="svg3507"
   viewBox="0 0 396.44084 337.03914"
   height="337.03915"
   width="396.44086">
  <defs
     id="defs3509" />
  <metadata
     id="metadata3512">
    <rdf:RDF>
      <cc:Work
         rdf:about="">
        <dc:format>image/svg+xml</dc:format>
        <dc:type
           rdf:resource="http://purl.org/dc/dcmitype/StillImage" />
        <dc:title></dc:title>
      </cc:Work>
    </rdf:RDF>
  </metadata>
  <g
     transform="translate(-185.61103,-343.84134)"
     id="layer1">
    <path
       id="path5725-5"
       d="m 579.89569,646.28537 c 1.79257,8.2958 -6.42091,24.3381 -24.45012,5.5826 3.98644,16.6822 -18.39009,20.4723 -24.45012,3.4536 -6.02946,15.683 -13.67499,24.804 -27.51365,3.454 -8.15037,18.3074 -14.00235,26.3556 -22.15271,5.5816 -13.09029,23.1395 -19.63148,15.5618 -24.45012,-0.099 -8.14938,16.3709 -16.29975,22.4426 -24.45012,-0.099 -7.41382,11.8085 -14.98638,21.0504 -24.45012,-0.099 -9.35626,20.446 -17.16645,16.5219 -24.45011,-0.099 -8.14939,16.0641 -16.29975,15.5022 -24.45012,-0.099 -15.73181,24.3533 -18.4887,6.9759 -24.45012,-0.099 -10.81851,17.846 -17.71665,9.4319 -24.45012,-0.099 -6.0265,9.2716 -23.82005,15.823 -23.68399,-5.7731 -6.80544,9.5799 -13.57835,19.3968 -24.45011,-0.099 -12.07765,19.8516 -19.28934,6.936 -25.21625,-4.3511 -8.10107,5.9323 -22.26019,20.8047 -25.2478,-4.4172 -25.98435,13.5752 -25.53079,-0.7179 -22.88631,-4.2854 L 382.06143,347.28571 Z"
       style="opacity:1;fill:#008080;fill-opacity:1;stroke:#000000;stroke-width:3.77797127;stroke-linecap:butt;stroke-linejoin:miter;stroke-miterlimit:4;stroke-dasharray:none;stroke-dashoffset:0;stroke-opacity:1" />
    <path
       id="path5725-7"
       d="m 579.89569,646.28537 c 1.79257,8.2958 -6.42091,24.3381 -24.45012,5.5826 3.98644,16.6822 -18.39009,20.4723 -24.45012,3.4536 -6.02946,15.683 -13.67499,24.804 -27.51365,3.454 -8.15037,18.3074 -14.00235,26.3556 -22.15271,5.5816 -13.09029,23.1395 -19.63148,15.5618 -24.45012,-0.099 -8.14938,16.3709 -16.29975,22.4426 -24.45012,-0.099 -7.41382,11.8085 -14.98638,21.0504 -24.45012,-0.099 -9.35626,20.446 -17.16645,16.5219 -24.45011,-0.099 -8.14939,16.0641 -16.29975,15.5022 -24.45012,-0.099 -15.73181,24.3533 -18.4887,6.9759 -24.45012,-0.099 -10.81851,17.846 -17.71665,9.4319 -24.45012,-0.099 -6.0265,9.2716 -23.82005,15.823 -23.68399,-5.7731 -6.80544,9.5799 -13.57835,19.3968 -24.45011,-0.099 -12.07765,19.8516 -19.28934,6.936 -25.21625,-4.3511 -8.10107,5.9323 -22.26019,20.8047 -25.2478,-4.4172 -25.98435,13.5752 -25.53079,-0.7179 -22.88631,-4.2854 L 382.06143,347.28571 Z"
       style="opacity:1;fill:#008080;fill-opacity:1;stroke:#000000;stroke-width:3.77797127;stroke-linecap:butt;stroke-linejoin:miter;stroke-miterlimit:4;stroke-dasharray:none;stroke-dashoffset:0;stroke-opacity:1" />
  </g>
</svg>
