<?xml version="1.0" encoding="UTF-8" standalone="no"?>
<svg
   xmlns:dc="http://purl.org/dc/elements/1.1/"
   xmlns:cc="http://creativecommons.org/ns#"
   xmlns:rdf="http://www.w3.org/1999/02/22-rdf-syntax-ns#"
   xmlns:svg="http://www.w3.org/2000/svg"
   xmlns="http://www.w3.org/2000/svg"
   version="1.1"
   id="svg5833"
   viewBox="0 0 80 80"
   >
  <defs
     id="defs5835" />
  <metadata
     id="metadata5838">
    <rdf:RDF>
      <cc:Work
         rdf:about="">
        <dc:format>image/svg+xml</dc:format>
        <dc:type
           rdf:resource="http://purl.org/dc/dcmitype/StillImage" />
        <dc:title></dc:title>
      </cc:Work>
    </rdf:RDF>
  </metadata>
  <g
     transform="translate(0,-972.36216)"
     id="layer1">
    <rect
       y="1024.4117"
       x="35.348858"
       height="23.036407"
       width="9.6803751"
       id="rect5721"
       style="opacity:1;fill:#b93408;fill-opacity:0.90980392;stroke:#000000;stroke-width:0.61066478;stroke-linecap:butt;stroke-linejoin:miter;stroke-miterlimit:4;stroke-dasharray:none;stroke-dashoffset:0;stroke-opacity:1" />
    <path
       style="opacity:1;fill:#008080;fill-opacity:1;stroke:#000000;stroke-width:0.60443646;stroke-linecap:butt;stroke-linejoin:miter;stroke-miterlimit:4;stroke-dasharray:none;stroke-dashoffset:0;stroke-opacity:1"
       d="m 72.279491,1025.5531 c 0.28673,1.3272 -1.02733,3.8938 -3.91178,0.8931 0.63774,2.669 -2.94228,3.2754 -3.91176,0.5526 -0.96465,2.5091 -2.18798,3.9684 -4.40197,0.5526 -1.30392,2.929 -2.2402,4.2166 -3.54413,0.893 -2.09434,3.7021 -3.14084,2.4897 -3.91176,-0.015 -1.30393,2.6192 -2.60785,3.5906 -3.91178,-0.015 -1.18612,1.8892 -2.39777,3.3678 -3.91177,-0.015 -1.4969,3.2712 -2.746494,2.6434 -3.911774,-0.015 -1.30392,2.5701 -2.60784,2.4802 -3.91177,-0.015 -2.517,3.8963 -2.958,1.1161 -3.91177,-0.015 -1.73081,2.8552 -2.83457,1.509 -3.91177,-0.015 -0.96418,1.4838 -3.81099,2.532 -3.78923,-0.9232 -1.08881,1.5327 -2.17233,3.1033 -3.91175,-0.015 -1.93231,3.1761 -3.08613,1.1097 -4.03432,-0.6961 -1.29615,0.9491 -3.56139,3.3286 -4.03939,-0.7067 -4.1572798,2.1719 -4.0847498,-0.1148 -3.6616198,-0.6856 L 40.628017,977.71978 Z"
       id="path5725" />
  </g>
</svg>

